<?xml version="1.0" encoding="UTF-8" standalone="no"?>
<!-- Created with Inkscape (http://www.inkscape.org/) -->

<svg
   width="114.21331mm"
   height="29.389704mm"
   viewBox="0 0 114.21331 29.389704"
   version="1.1"
   id="svg1"
   xml:space="preserve"
   inkscape:version="1.3.2 (091e20ef0f, 2023-11-25, custom)"
   sodipodi:docname="logo.svg"
   xmlns:inkscape="http://www.inkscape.org/namespaces/inkscape"
   xmlns:sodipodi="http://sodipodi.sourceforge.net/DTD/sodipodi-0.dtd"
   xmlns="http://www.w3.org/2000/svg"
   xmlns:svg="http://www.w3.org/2000/svg"><sodipodi:namedview
     id="namedview1"
     pagecolor="#ffffff"
     bordercolor="#000000"
     borderopacity="0.25"
     inkscape:showpageshadow="2"
     inkscape:pageopacity="0.0"
     inkscape:pagecheckerboard="0"
     inkscape:deskcolor="#d1d1d1"
     inkscape:document-units="mm"
     showguides="true"
     inkscape:zoom="1.0558135"
     inkscape:cx="196.05735"
     inkscape:cy="54.933945"
     inkscape:window-width="1712"
     inkscape:window-height="1408"
     inkscape:window-x="1720"
     inkscape:window-y="0"
     inkscape:window-maximized="1"
     inkscape:current-layer="layer1"><sodipodi:guide
       position="29.136399,286.15101"
       orientation="0,-1"
       id="guide1"
       inkscape:locked="false" /></sodipodi:namedview><defs
     id="defs1" /><g
     inkscape:label="Layer 1"
     inkscape:groupmode="layer"
     id="layer1"
     transform="translate(-53.059303,-133.99587)"><g
       style="fill:#7f9acf;fill-opacity:1"
       id="g1"
       transform="matrix(0.26458333,0,0,0.26458333,54.067212,133.58109)"><text
         xml:space="preserve"
         style="font-size:117.641px;font-family:'PP Neue Montreal Mono';-inkscape-font-specification:'PP Neue Montreal Mono';opacity:0.99;fill:#7f9acf;fill-opacity:1;stroke-width:0.612713"
         x="129.73952"
         y="83.977005"
         id="text314"><tspan
           sodipodi:role="line"
           id="tspan314"
           x="129.73952"
           y="83.977005"
           style="font-style:normal;font-variant:normal;font-weight:bold;font-stretch:normal;font-family:'PP NeueBit';-inkscape-font-specification:'PP NeueBit Bold';fill:#7f9acf;fill-opacity:1;stroke-width:0.612713">prompts</tspan></text></g><g
       id="g35"
       transform="matrix(0.04198529,0,0,0.04198529,53.059303,133.99587)"
       style="fill:#7f9acf;fill-opacity:1"><polygon
         points="56,700 56,672 28,672 28,644 0,644 0,700 "
         id="polygon1"
         style="fill:#7f9acf;fill-opacity:1" /><rect
         x="56"
         y="644"
         width="56"
         height="28"
         id="rect1-3"
         style="fill:#7f9acf;fill-opacity:1" /><polygon
         points="252,616 224,616 224,588 196,588 196,616 112,616 112,644 252,644 "
         id="polygon2"
         style="fill:#7f9acf;fill-opacity:1" /><rect
         x="252"
         y="588"
         width="28"
         height="28"
         id="rect2-6"
         style="fill:#7f9acf;fill-opacity:1" /><rect
         x="280"
         y="560"
         width="28"
         height="28"
         id="rect3"
         style="fill:#7f9acf;fill-opacity:1" /><rect
         x="308"
         y="532"
         width="28"
         height="28"
         id="rect4"
         style="fill:#7f9acf;fill-opacity:1" /><rect
         x="336"
         y="504"
         width="28"
         height="28"
         id="rect5"
         style="fill:#7f9acf;fill-opacity:1" /><rect
         x="364"
         y="476"
         width="28"
         height="28"
         id="rect6"
         style="fill:#7f9acf;fill-opacity:1" /><rect
         x="392"
         y="448"
         width="28"
         height="28"
         id="rect7"
         style="fill:#7f9acf;fill-opacity:1" /><rect
         x="420"
         y="420"
         width="28"
         height="28"
         id="rect8"
         style="fill:#7f9acf;fill-opacity:1" /><rect
         x="448"
         y="392"
         width="28"
         height="28"
         id="rect9"
         style="fill:#7f9acf;fill-opacity:1" /><rect
         x="476"
         y="364"
         width="28"
         height="28"
         id="rect10-7"
         style="fill:#7f9acf;fill-opacity:1" /><rect
         x="504"
         y="336"
         width="28"
         height="28"
         id="rect11-5"
         style="fill:#7f9acf;fill-opacity:1" /><rect
         x="532"
         y="308"
         width="28"
         height="28"
         id="rect12-3"
         style="fill:#7f9acf;fill-opacity:1" /><rect
         x="560"
         y="280"
         width="28"
         height="28"
         id="rect13-5"
         style="fill:#7f9acf;fill-opacity:1" /><rect
         x="672"
         y="140"
         width="28"
         height="56"
         id="rect14"
         style="fill:#7f9acf;fill-opacity:1" /><rect
         x="644"
         y="112"
         width="28"
         height="28"
         id="rect15"
         style="fill:#7f9acf;fill-opacity:1" /><rect
         x="616"
         y="84"
         width="28"
         height="28"
         id="rect16"
         style="fill:#7f9acf;fill-opacity:1" /><rect
         x="588"
         y="56"
         width="28"
         height="28"
         id="rect17"
         style="fill:#7f9acf;fill-opacity:1" /><rect
         x="560"
         y="28"
         width="28"
         height="28"
         id="rect18"
         style="fill:#7f9acf;fill-opacity:1" /><rect
         x="28"
         y="588"
         width="28"
         height="56"
         id="rect19"
         style="fill:#7f9acf;fill-opacity:1" /><polygon
         points="84,448 56,448 56,588 84,588 84,504 112,504 112,476 84,476 "
         id="polygon19"
         style="fill:#7f9acf;fill-opacity:1" /><rect
         x="84"
         y="420"
         width="28"
         height="28"
         id="rect20"
         style="fill:#7f9acf;fill-opacity:1" /><rect
         x="112"
         y="392"
         width="28"
         height="28"
         id="rect21"
         style="fill:#7f9acf;fill-opacity:1" /><rect
         x="140"
         y="364"
         width="28"
         height="28"
         id="rect22"
         style="fill:#7f9acf;fill-opacity:1" /><rect
         x="168"
         y="336"
         width="28"
         height="28"
         id="rect23"
         style="fill:#7f9acf;fill-opacity:1" /><rect
         x="196"
         y="308"
         width="28"
         height="28"
         id="rect24"
         style="fill:#7f9acf;fill-opacity:1" /><rect
         x="224"
         y="280"
         width="28"
         height="28"
         id="rect25"
         style="fill:#7f9acf;fill-opacity:1" /><rect
         x="252"
         y="252"
         width="28"
         height="28"
         id="rect26"
         style="fill:#7f9acf;fill-opacity:1" /><rect
         x="280"
         y="224"
         width="28"
         height="28"
         id="rect27"
         style="fill:#7f9acf;fill-opacity:1" /><rect
         x="308"
         y="196"
         width="28"
         height="28"
         id="rect28"
         style="fill:#7f9acf;fill-opacity:1" /><rect
         x="336"
         y="168"
         width="28"
         height="28"
         id="rect29"
         style="fill:#7f9acf;fill-opacity:1" /><rect
         x="364"
         y="140"
         width="28"
         height="28"
         id="rect30"
         style="fill:#7f9acf;fill-opacity:1" /><g
         id="g33"
         style="fill:#7f9acf;fill-opacity:1"><polygon
           points="476,56 448,56 448,84 420,84 420,112 476,112 476,140 504,140 504,168 532,168 532,196 560,196 560,224 588,224 588,252 588,252 588,280 616,280 616,252 616,252 616,252 616,252 644,252 644,224 588,224 588,196 560,196 560,168 532,168 532,140 504,140 504,112 476,112 "
           id="polygon30"
           style="fill:#7f9acf;fill-opacity:1" /><rect
           x="644"
           y="196"
           width="28"
           height="28"
           id="rect31"
           style="fill:#7f9acf;fill-opacity:1" /><rect
           x="392"
           y="112"
           width="28"
           height="28"
           id="rect32"
           style="fill:#7f9acf;fill-opacity:1" /><rect
           x="476"
           y="28"
           width="28"
           height="28"
           id="rect33"
           style="fill:#7f9acf;fill-opacity:1" /></g><rect
         x="504"
         width="55.130001"
         height="28"
         id="rect34"
         y="0"
         style="fill:#7f9acf;fill-opacity:1" /><rect
         x="112"
         y="504"
         width="28"
         height="28"
         id="rect35"
         style="fill:#7f9acf;fill-opacity:1" /><polygon
         points="168,588 196,588 196,560 168,560 168,532 140,532 140,560 168,560 "
         id="polygon35"
         style="fill:#7f9acf;fill-opacity:1" /></g></g></svg>
